<svg fill="currentColor" width="40" height="40" viewBox="0 0 40 40"  xmlns="http://www.w3.org/2000/svg">
<path fill="currentColor" fill-rule="evenodd" clip-rule="evenodd" d="M7.92441 20C7.92441 13.3266 13.3343 7.91667 20.0077 7.91667C26.6812 7.91667 32.091 13.3266 32.091 20C32.091 20.0562 32.0948 20.1113 32.102 20.1655C32.0965 20.2178 32.0945 20.271 32.0957 20.3248C32.106 20.7492 32.0517 21.4073 31.9123 22.0365C31.7605 22.7218 31.5627 23.1157 31.447 23.2372C30.9438 23.7652 30.2515 24.0715 29.5225 24.0892C28.7933 24.1067 28.087 23.8338 27.559 23.3307C27.2138 23.0017 27.1148 22.5188 27.0878 21.3968L26.8953 13.4C26.8788 12.7099 26.3058 12.1639 25.6157 12.1805C24.9255 12.1971 24.3795 12.77 24.3962 13.4602L24.4238 14.6146C23.222 13.6279 21.684 13.0356 20.0077 13.0356C16.1614 13.0356 13.0434 16.1536 13.0434 19.9998C13.0434 23.8462 16.1614 26.9642 20.0077 26.9642C22.1317 26.9642 24.0337 26.0133 25.311 24.514C25.4543 24.732 25.6267 24.9425 25.8343 25.1405C26.8423 26.101 28.1907 26.6218 29.5825 26.5883C30.9745 26.5548 32.2962 25.9698 33.2568 24.9618C33.873 24.3153 34.1848 23.337 34.3532 22.5772C34.5338 21.761 34.6103 20.901 34.595 20.2647C34.5938 20.2188 34.5903 20.1737 34.5845 20.1292C34.5888 20.0867 34.591 20.0437 34.591 20C34.591 11.9459 28.0618 5.41667 20.0077 5.41667C11.9536 5.41667 5.42441 11.9459 5.42441 20C5.42441 28.0542 11.9536 34.5833 20.0077 34.5833C23.4128 34.5833 26.5483 33.4148 29.0305 31.4578C29.5725 31.0303 29.6655 30.2443 29.238 29.7022C28.8107 29.1602 28.0247 29.0672 27.4825 29.4947C25.4257 31.1163 22.8313 32.0833 20.0077 32.0833C13.3343 32.0833 7.92441 26.6735 7.92441 20ZM20.0077 15.5356C17.5422 15.5356 15.5434 17.5343 15.5434 19.9998C15.5434 22.4655 17.5422 24.4642 20.0077 24.4642C22.4733 24.4642 24.472 22.4655 24.472 19.9998C24.472 17.5343 22.4733 15.5356 20.0077 15.5356Z" />
</svg>
