<svg data-vgp="true" aria-hidden="true" viewBox="0 0 20 20" class="is-inline"><path fill="currentColor" fill-rule="evenodd" d="M10 3a7 7 0 1 0 3.394 13.123.75.75 0 0 1 .542-.073l2.794.68-.68-2.794a.75.75 0 0 1 .073-.542A7 7 0 0 0 10 3Zm-8.5 7a8.5 8.5 0 1 1 16.075 3.859l.904 3.714a.75.75 0 0 1-.906.906l-3.714-.904A8.5 8.5 0 0 1 1.5 10ZM6 8.25a.75.75 0 0 1 .75-.75h6.5a.75.75 0 0 1 0 1.5h-6.5A.75.75 0 0 1 6 8.25ZM6.75 11a.75.75 0 0 0 0 1.5h4.5a.75.75 0 0 0 0-1.5h-4.5Z" clip-rule="evenodd"></path></svg>