<svg data-vgp="true" aria-hidden="true" viewBox="0 0 20 20" class="is-inline"><path fill="currentColor" fill-rule="evenodd" d="M10 6a1.5 1.5 0 1 0 0-3 1.5 1.5 0 0 0 0 3Zm-5.5 5.5a1.5 1.5 0 1 0 0-3 1.5 1.5 0 0 0 0 3Zm7-1.5a1.5 1.5 0 1 1-3 0 1.5 1.5 0 0 1 3 0Zm0 5.5a1.5 1.5 0 1 1-3 0 1.5 1.5 0 0 1 3 0Zm-5.5 0a1.5 1.5 0 1 1-3 0 1.5 1.5 0 0 1 3 0Zm9.5-4a1.5 1.5 0 1 0 0-3 1.5 1.5 0 0 0 0 3Zm1.5 4a1.5 1.5 0 1 1-3 0 1.5 1.5 0 0 1 3 0ZM6 4.5a1.5 1.5 0 1 1-3 0 1.5 1.5 0 0 1 3 0ZM15.5 6a1.5 1.5 0 1 0 0-3 1.5 1.5 0 0 0 0 3Z" clip-rule="evenodd"></path></svg>