<svg data-vgp="true" aria-hidden="true" viewBox="0 0 20 20" class="is-inline"><path fill="currentColor" fill-rule="evenodd" d="M13.616 3.444a1.25 1.25 0 0 1 1.768 0l1.171 1.172a1.25 1.25 0 0 1 0 1.768L15.5 7.439 12.56 4.5l1.056-1.055ZM11.5 5.561l-7.079 7.078-1.102 4.042 4.042-1.102 7.078-7.08L11.5 5.562Zm4.945-3.177a2.75 2.75 0 0 0-3.89 0L3.22 11.72a.75.75 0 0 0-.194.333l-1.5 5.5a.75.75 0 0 0 .921.92l5.5-1.5a.75.75 0 0 0 .333-.193l9.336-9.336a2.75 2.75 0 0 0 0-3.889l-1.171-1.171Z" clip-rule="evenodd"></path></svg>