<svg data-vgp="true"  aria-hidden="true" viewBox="0 0 20 20" class="is-inline"><path fill="currentColor" fill-rule="evenodd" d="M2.5 5.25A3.75 3.75 0 0 1 6.25 1.5h7.5a3.75 3.75 0 0 1 3.75 3.75v11.642c0 1.434-1.735 2.153-2.75 1.137L10 13.271 5.25 18.03c-1.015 1.016-2.75.297-2.75-1.137V5.25ZM6.25 3A2.25 2.25 0 0 0 4 5.25v11.642c0 .035.009.052.016.062a.125.125 0 0 0 .116.048.101.101 0 0 0 .056-.033l5.21-5.218a.85.85 0 0 1 1.204 0l5.21 5.218a.1.1 0 0 0 .056.033.11.11 0 0 0 .064-.009.118.118 0 0 0 .052-.039c.007-.01.016-.027.016-.062V5.25A2.25 2.25 0 0 0 13.75 3h-7.5Z" clip-rule="evenodd"></path></svg>